<mxfile host="app.diagrams.net" agent="Mozilla/5.0 (X11; Linux x86_64; rv:129.0) Gecko/20100101 Firefox/129.0" version="24.7.12">
  <diagram id="C5RBs43oDa-KdzZeNtuy" name="Page-1">
    <mxGraphModel dx="2262" dy="2029" grid="1" gridSize="10" guides="1" tooltips="1" connect="1" arrows="0" fold="1" page="1" pageScale="1" pageWidth="827" pageHeight="1169" math="0" shadow="0">
      <root>
        <mxCell id="WIyWlLk6GJQsqaUBKTNV-0" />
        <mxCell id="WIyWlLk6GJQsqaUBKTNV-1" parent="WIyWlLk6GJQsqaUBKTNV-0" />
        <mxCell id="sf_FIDJaUl7v7Dqxa3QS-358" value="&lt;div&gt;infomentor.se&lt;/div&gt;" style="swimlane;whiteSpace=wrap;html=1;border-radius=10;rounded=1;glass=0;shadow=0;strokeWidth=3;startSize=23;" vertex="1" parent="WIyWlLk6GJQsqaUBKTNV-1">
          <mxGeometry x="-920" y="80" width="1480" height="990" as="geometry" />
        </mxCell>
        <mxCell id="sf_FIDJaUl7v7Dqxa3QS-343" value="infomentor.se/swedish/Production" style="swimlane;whiteSpace=wrap;html=1;border-radius=10;rounded=1;glass=0;shadow=0;strokeWidth=3;startSize=23;" vertex="1" parent="sf_FIDJaUl7v7Dqxa3QS-358">
          <mxGeometry x="768.5" y="740" width="671.5" height="230" as="geometry" />
        </mxCell>
        <mxCell id="sf_FIDJaUl7v7Dqxa3QS-356" value="mentor/default.aspx" style="rounded=1;whiteSpace=wrap;html=1;" vertex="1" parent="sf_FIDJaUl7v7Dqxa3QS-343">
          <mxGeometry x="6.5" y="90" width="120" height="60" as="geometry" />
        </mxCell>
        <mxCell id="sf_FIDJaUl7v7Dqxa3QS-357" value="302" style="text;html=1;align=center;verticalAlign=middle;resizable=0;points=[];autosize=1;strokeColor=none;fillColor=none;rounded=1;strokeWidth=1;fontColor=#FF8000;" vertex="1" parent="sf_FIDJaUl7v7Dqxa3QS-343">
          <mxGeometry x="6.5" y="90" width="40" height="30" as="geometry" />
        </mxCell>
        <mxCell id="sf_FIDJaUl7v7Dqxa3QS-360" value="&lt;div&gt;Cookies&lt;br&gt;ASP.NET_SessionId=STRING&lt;/div&gt;&lt;div&gt;BIGipServer~INFOMENTOR~INFOMENTOR-SE-HTTPS-POOL=STRING&lt;/div&gt;&lt;div&gt;TSf65f6949027=STRING&lt;br&gt;&lt;/div&gt;" style="text;html=1;align=left;verticalAlign=middle;resizable=0;points=[];autosize=1;strokeColor=none;fillColor=none;" vertex="1" parent="sf_FIDJaUl7v7Dqxa3QS-343">
          <mxGeometry x="151.5" y="70" width="420" height="70" as="geometry" />
        </mxCell>
        <mxCell id="sf_FIDJaUl7v7Dqxa3QS-361" value="&lt;div&gt;login=STRING&lt;/div&gt;&lt;div&gt;id=STRING&lt;/div&gt;&lt;div&gt;sso=INT&lt;br&gt;&lt;/div&gt;" style="text;html=1;align=left;verticalAlign=middle;resizable=0;points=[];autosize=1;strokeColor=none;fillColor=none;" vertex="1" parent="sf_FIDJaUl7v7Dqxa3QS-343">
          <mxGeometry x="151.5" y="20" width="100" height="60" as="geometry" />
        </mxCell>
        <mxCell id="sf_FIDJaUl7v7Dqxa3QS-391" value="mentor/" style="rounded=1;whiteSpace=wrap;html=1;" vertex="1" parent="sf_FIDJaUl7v7Dqxa3QS-343">
          <mxGeometry x="6.5" y="160" width="120" height="60" as="geometry" />
        </mxCell>
        <mxCell id="sf_FIDJaUl7v7Dqxa3QS-392" value="302" style="text;html=1;align=center;verticalAlign=middle;resizable=0;points=[];autosize=1;strokeColor=none;fillColor=none;rounded=1;strokeWidth=1;fontColor=#FF8000;" vertex="1" parent="sf_FIDJaUl7v7Dqxa3QS-343">
          <mxGeometry x="6.5" y="160" width="40" height="30" as="geometry" />
        </mxCell>
        <mxCell id="sf_FIDJaUl7v7Dqxa3QS-376" value="hub.infomentor.se" style="swimlane;whiteSpace=wrap;html=1;border-radius=10;rounded=1;glass=0;shadow=0;strokeWidth=3;startSize=23;" vertex="1" parent="sf_FIDJaUl7v7Dqxa3QS-358">
          <mxGeometry x="10" y="60" width="740" height="910" as="geometry" />
        </mxCell>
        <mxCell id="sf_FIDJaUl7v7Dqxa3QS-381" value="&lt;div&gt;hub.infomentor.se/authentication/authentication&lt;/div&gt;" style="swimlane;whiteSpace=wrap;html=1;border-radius=10;rounded=1;glass=0;shadow=0;strokeWidth=3;startSize=23;" vertex="1" parent="sf_FIDJaUl7v7Dqxa3QS-376">
          <mxGeometry x="20" y="350" width="700" height="540" as="geometry" />
        </mxCell>
        <mxCell id="sf_FIDJaUl7v7Dqxa3QS-387" value="&lt;div&gt;login&lt;/div&gt;" style="rounded=1;whiteSpace=wrap;html=1;" vertex="1" parent="sf_FIDJaUl7v7Dqxa3QS-381">
          <mxGeometry x="20" y="60" width="120" height="60" as="geometry" />
        </mxCell>
        <mxCell id="sf_FIDJaUl7v7Dqxa3QS-386" value="200" style="text;html=1;align=center;verticalAlign=middle;resizable=0;points=[];autosize=1;strokeColor=none;fillColor=none;rounded=1;strokeWidth=1;fontColor=#009900;" vertex="1" parent="sf_FIDJaUl7v7Dqxa3QS-381">
          <mxGeometry x="20" y="60" width="40" height="30" as="geometry" />
        </mxCell>
        <mxCell id="sf_FIDJaUl7v7Dqxa3QS-389" value="apitype=INFOMENTOR_API_VERSION&lt;br&gt;forceOAuth=true" style="text;html=1;align=left;verticalAlign=middle;resizable=0;points=[];autosize=1;strokeColor=none;fillColor=none;" vertex="1" parent="sf_FIDJaUl7v7Dqxa3QS-381">
          <mxGeometry x="240" y="50" width="240" height="40" as="geometry" />
        </mxCell>
        <mxCell id="sf_FIDJaUl7v7Dqxa3QS-395" value="&lt;div&gt;Cookies&lt;br&gt;&lt;/div&gt;&lt;div&gt;Im1_Ck_LastUsedIdp=STRING&lt;/div&gt;&lt;div&gt;ASP.NET_SessionId=STRING&lt;/div&gt;&lt;div&gt;BIGipServer~INFOMENTOR~INFOMENTOR-SE-HTTPS-POOL=STRING&lt;/div&gt;&lt;div&gt;TSf65f6949027=STRING&lt;/div&gt;&lt;div&gt;.ASPXAUTH=STRING&lt;br&gt;&lt;/div&gt;" style="text;html=1;align=left;verticalAlign=middle;resizable=0;points=[];autosize=1;strokeColor=none;fillColor=none;" vertex="1" parent="sf_FIDJaUl7v7Dqxa3QS-381">
          <mxGeometry x="240" y="130" width="420" height="100" as="geometry" />
        </mxCell>
        <mxCell id="sf_FIDJaUl7v7Dqxa3QS-396" value="oauth_token=TOKEN" style="text;html=1;align=left;verticalAlign=middle;resizable=0;points=[];autosize=1;strokeColor=none;fillColor=none;" vertex="1" parent="sf_FIDJaUl7v7Dqxa3QS-381">
          <mxGeometry x="240" y="110" width="140" height="30" as="geometry" />
        </mxCell>
        <mxCell id="sf_FIDJaUl7v7Dqxa3QS-397" value="LoginCallback" style="rounded=1;whiteSpace=wrap;html=1;" vertex="1" parent="sf_FIDJaUl7v7Dqxa3QS-381">
          <mxGeometry x="40" y="440" width="120" height="60" as="geometry" />
        </mxCell>
        <mxCell id="sf_FIDJaUl7v7Dqxa3QS-398" value="200" style="text;html=1;align=center;verticalAlign=middle;resizable=0;points=[];autosize=1;strokeColor=none;fillColor=none;rounded=1;strokeWidth=1;fontColor=#009900;" vertex="1" parent="sf_FIDJaUl7v7Dqxa3QS-381">
          <mxGeometry x="40" y="440" width="40" height="30" as="geometry" />
        </mxCell>
        <mxCell id="sf_FIDJaUl7v7Dqxa3QS-401" value="apitype=INFOMENTOR_API_VERSION&lt;br&gt;&lt;div&gt;apiinstance=?|EMPTY&lt;/div&gt;&lt;div&gt;oauth_verifier=STRING&lt;/div&gt;&lt;div&gt;oauth_token=TOKEN&lt;br&gt;&lt;/div&gt;" style="text;html=1;align=left;verticalAlign=middle;resizable=0;points=[];autosize=1;strokeColor=none;fillColor=none;" vertex="1" parent="sf_FIDJaUl7v7Dqxa3QS-381">
          <mxGeometry x="190" y="370" width="240" height="70" as="geometry" />
        </mxCell>
        <mxCell id="sf_FIDJaUl7v7Dqxa3QS-403" value="&lt;div&gt;Cookies&lt;br&gt;&lt;/div&gt;&lt;div&gt;ASP.NET_SessionId=STRING&lt;/div&gt;&lt;div&gt;BIGipServer~INFOMENTOR~INFOMENTOR-SE-HTTPS-POOL=STRING&lt;/div&gt;&lt;div&gt;TS0116cbba=STRING&lt;br&gt;&lt;/div&gt;" style="text;html=1;align=left;verticalAlign=middle;resizable=0;points=[];autosize=1;strokeColor=none;fillColor=none;" vertex="1" parent="sf_FIDJaUl7v7Dqxa3QS-381">
          <mxGeometry x="190" y="440" width="420" height="70" as="geometry" />
        </mxCell>
        <mxCell id="sf_FIDJaUl7v7Dqxa3QS-399" value="/#/" style="rounded=1;whiteSpace=wrap;html=1;" vertex="1" parent="sf_FIDJaUl7v7Dqxa3QS-376">
          <mxGeometry x="40" y="70" width="120" height="60" as="geometry" />
        </mxCell>
        <mxCell id="sf_FIDJaUl7v7Dqxa3QS-400" value="200" style="text;html=1;align=center;verticalAlign=middle;resizable=0;points=[];autosize=1;strokeColor=none;fillColor=none;rounded=1;strokeWidth=1;fontColor=#009900;" vertex="1" parent="sf_FIDJaUl7v7Dqxa3QS-376">
          <mxGeometry x="40" y="70" width="40" height="30" as="geometry" />
        </mxCell>
        <mxCell id="sf_FIDJaUl7v7Dqxa3QS-406" style="edgeStyle=orthogonalEdgeStyle;rounded=0;orthogonalLoop=1;jettySize=auto;html=1;exitX=0;exitY=0.5;exitDx=0;exitDy=0;entryX=0;entryY=0.5;entryDx=0;entryDy=0;" edge="1" parent="sf_FIDJaUl7v7Dqxa3QS-376" source="sf_FIDJaUl7v7Dqxa3QS-397" target="sf_FIDJaUl7v7Dqxa3QS-399">
          <mxGeometry relative="1" as="geometry">
            <Array as="points">
              <mxPoint x="10" y="820" />
              <mxPoint x="10" y="100" />
            </Array>
          </mxGeometry>
        </mxCell>
        <mxCell id="sf_FIDJaUl7v7Dqxa3QS-409" value="GET" style="edgeLabel;html=1;align=center;verticalAlign=middle;resizable=0;points=[];" vertex="1" connectable="0" parent="sf_FIDJaUl7v7Dqxa3QS-406">
          <mxGeometry x="-0.9463" relative="1" as="geometry">
            <mxPoint as="offset" />
          </mxGeometry>
        </mxCell>
        <mxCell id="sf_FIDJaUl7v7Dqxa3QS-407" value="Destination!" style="text;html=1;align=center;verticalAlign=middle;resizable=0;points=[];autosize=1;strokeColor=none;fillColor=none;" vertex="1" parent="sf_FIDJaUl7v7Dqxa3QS-376">
          <mxGeometry x="55" y="130" width="90" height="30" as="geometry" />
        </mxCell>
        <mxCell id="sf_FIDJaUl7v7Dqxa3QS-410" value="&lt;div&gt;Cookies&lt;br&gt;&lt;/div&gt;&lt;div&gt;ASP.NET_SessionId=STRING&lt;/div&gt;&lt;div&gt;BIGipServer~INFOMENTOR~INFOMENTOR-SE-HTTPS-POOL=STRING&lt;/div&gt;&lt;div&gt;TS0116cbba=STRING&lt;br&gt;IMHome=STRING&lt;br&gt;&lt;/div&gt;" style="text;html=1;align=left;verticalAlign=middle;resizable=0;points=[];autosize=1;strokeColor=none;fillColor=none;" vertex="1" parent="sf_FIDJaUl7v7Dqxa3QS-376">
          <mxGeometry x="20" y="190" width="420" height="90" as="geometry" />
        </mxCell>
        <mxCell id="sf_FIDJaUl7v7Dqxa3QS-388" style="edgeStyle=orthogonalEdgeStyle;rounded=0;orthogonalLoop=1;jettySize=auto;html=1;exitX=0;exitY=0.5;exitDx=0;exitDy=0;entryX=1;entryY=0.5;entryDx=0;entryDy=0;" edge="1" parent="sf_FIDJaUl7v7Dqxa3QS-358" source="sf_FIDJaUl7v7Dqxa3QS-356" target="sf_FIDJaUl7v7Dqxa3QS-387">
          <mxGeometry relative="1" as="geometry">
            <Array as="points">
              <mxPoint x="700" y="860" />
              <mxPoint x="700" y="500" />
            </Array>
          </mxGeometry>
        </mxCell>
        <mxCell id="sf_FIDJaUl7v7Dqxa3QS-390" value="GET" style="edgeLabel;html=1;align=center;verticalAlign=middle;resizable=0;points=[];" vertex="1" connectable="0" parent="sf_FIDJaUl7v7Dqxa3QS-388">
          <mxGeometry x="0.2" y="2" relative="1" as="geometry">
            <mxPoint y="-2" as="offset" />
          </mxGeometry>
        </mxCell>
        <mxCell id="sf_FIDJaUl7v7Dqxa3QS-393" style="edgeStyle=orthogonalEdgeStyle;rounded=0;orthogonalLoop=1;jettySize=auto;html=1;exitX=1;exitY=0.75;exitDx=0;exitDy=0;entryX=0;entryY=0.25;entryDx=0;entryDy=0;" edge="1" parent="sf_FIDJaUl7v7Dqxa3QS-358" source="sf_FIDJaUl7v7Dqxa3QS-387" target="sf_FIDJaUl7v7Dqxa3QS-391">
          <mxGeometry relative="1" as="geometry">
            <mxPoint x="680" y="910" as="targetPoint" />
            <Array as="points">
              <mxPoint x="680" y="515" />
              <mxPoint x="680" y="915" />
            </Array>
          </mxGeometry>
        </mxCell>
        <mxCell id="sf_FIDJaUl7v7Dqxa3QS-394" value="POST" style="edgeLabel;html=1;align=center;verticalAlign=middle;resizable=0;points=[];" vertex="1" connectable="0" parent="sf_FIDJaUl7v7Dqxa3QS-393">
          <mxGeometry x="-0.2129" y="-3" relative="1" as="geometry">
            <mxPoint x="-5" y="-3" as="offset" />
          </mxGeometry>
        </mxCell>
        <mxCell id="sf_FIDJaUl7v7Dqxa3QS-402" style="edgeStyle=orthogonalEdgeStyle;rounded=0;orthogonalLoop=1;jettySize=auto;html=1;exitX=0;exitY=0.5;exitDx=0;exitDy=0;entryX=1;entryY=0.5;entryDx=0;entryDy=0;" edge="1" parent="sf_FIDJaUl7v7Dqxa3QS-358" source="sf_FIDJaUl7v7Dqxa3QS-391" target="sf_FIDJaUl7v7Dqxa3QS-397">
          <mxGeometry relative="1" as="geometry">
            <Array as="points">
              <mxPoint x="210" y="930" />
              <mxPoint x="210" y="880" />
            </Array>
          </mxGeometry>
        </mxCell>
        <mxCell id="sf_FIDJaUl7v7Dqxa3QS-405" value="GET" style="edgeLabel;html=1;align=center;verticalAlign=middle;resizable=0;points=[];" vertex="1" connectable="0" parent="sf_FIDJaUl7v7Dqxa3QS-402">
          <mxGeometry x="0.0154" relative="1" as="geometry">
            <mxPoint as="offset" />
          </mxGeometry>
        </mxCell>
        <mxCell id="sf_FIDJaUl7v7Dqxa3QS-202" style="edgeStyle=orthogonalEdgeStyle;rounded=0;orthogonalLoop=1;jettySize=auto;html=1;exitX=0.5;exitY=1;exitDx=0;exitDy=0;" edge="1" parent="WIyWlLk6GJQsqaUBKTNV-1" source="sf_FIDJaUl7v7Dqxa3QS-5" target="sf_FIDJaUl7v7Dqxa3QS-1">
          <mxGeometry relative="1" as="geometry" />
        </mxCell>
        <mxCell id="sf_FIDJaUl7v7Dqxa3QS-237" value="GET" style="edgeLabel;html=1;align=center;verticalAlign=middle;resizable=0;points=[];" vertex="1" connectable="0" parent="sf_FIDJaUl7v7Dqxa3QS-202">
          <mxGeometry x="0.4667" relative="1" as="geometry">
            <mxPoint as="offset" />
          </mxGeometry>
        </mxCell>
        <mxCell id="sf_FIDJaUl7v7Dqxa3QS-5" value="Initial Request" style="rounded=1;whiteSpace=wrap;html=1;" vertex="1" parent="WIyWlLk6GJQsqaUBKTNV-1">
          <mxGeometry x="-55" y="-40" width="120" height="60" as="geometry" />
        </mxCell>
        <mxCell id="sf_FIDJaUl7v7Dqxa3QS-8" value="&lt;div&gt;sso.infomentor.se&lt;/div&gt;" style="swimlane;whiteSpace=wrap;html=1;border-radius=10;rounded=1;glass=0;shadow=0;strokeWidth=3;" vertex="1" parent="WIyWlLk6GJQsqaUBKTNV-1">
          <mxGeometry x="-150" y="140" width="670" height="660" as="geometry">
            <mxRectangle x="-150" y="140" width="140" height="30" as="alternateBounds" />
          </mxGeometry>
        </mxCell>
        <mxCell id="sf_FIDJaUl7v7Dqxa3QS-242" style="edgeStyle=orthogonalEdgeStyle;rounded=0;orthogonalLoop=1;jettySize=auto;html=1;exitX=1;exitY=0.5;exitDx=0;exitDy=0;" edge="1" parent="sf_FIDJaUl7v7Dqxa3QS-8" source="sf_FIDJaUl7v7Dqxa3QS-1" target="sf_FIDJaUl7v7Dqxa3QS-240">
          <mxGeometry relative="1" as="geometry" />
        </mxCell>
        <mxCell id="sf_FIDJaUl7v7Dqxa3QS-1" value="&lt;div&gt;login.ashx?idp=stockholm_stu&lt;/div&gt;" style="rounded=1;whiteSpace=wrap;html=1;" vertex="1" parent="sf_FIDJaUl7v7Dqxa3QS-8">
          <mxGeometry x="30" y="70" width="250" height="60" as="geometry" />
        </mxCell>
        <mxCell id="sf_FIDJaUl7v7Dqxa3QS-214" value="302" style="text;html=1;align=center;verticalAlign=middle;resizable=0;points=[];autosize=1;strokeColor=none;fillColor=none;rounded=1;strokeWidth=1;fontColor=#FF8000;" vertex="1" parent="sf_FIDJaUl7v7Dqxa3QS-8">
          <mxGeometry x="135" y="70" width="40" height="30" as="geometry" />
        </mxCell>
        <mxCell id="sf_FIDJaUl7v7Dqxa3QS-215" value="&lt;div&gt;SAMLRequest=STRING&lt;/div&gt;&lt;div align=&quot;left&quot;&gt;SigAlg=URI&lt;/div&gt;&lt;div align=&quot;left&quot;&gt;Signature=STRING&lt;/div&gt;" style="text;html=1;align=center;verticalAlign=middle;resizable=0;points=[];autosize=1;strokeColor=none;fillColor=none;" vertex="1" parent="sf_FIDJaUl7v7Dqxa3QS-8">
          <mxGeometry x="520" y="110" width="150" height="60" as="geometry" />
        </mxCell>
        <mxCell id="sf_FIDJaUl7v7Dqxa3QS-217" value="&lt;div align=&quot;left&quot;&gt;Cookies&lt;/div&gt;&lt;div align=&quot;left&quot;&gt;SMIDENITY=STRING&lt;br&gt;&lt;/div&gt;" style="text;html=1;align=center;verticalAlign=middle;resizable=0;points=[];autosize=1;strokeColor=none;fillColor=none;" vertex="1" parent="sf_FIDJaUl7v7Dqxa3QS-8">
          <mxGeometry x="520" y="170" width="140" height="40" as="geometry" />
        </mxCell>
        <mxCell id="sf_FIDJaUl7v7Dqxa3QS-243" style="edgeStyle=orthogonalEdgeStyle;rounded=0;orthogonalLoop=1;jettySize=auto;html=1;exitX=0.5;exitY=1;exitDx=0;exitDy=0;exitPerimeter=0;entryX=1;entryY=0.5;entryDx=0;entryDy=0;" edge="1" parent="sf_FIDJaUl7v7Dqxa3QS-8" source="sf_FIDJaUl7v7Dqxa3QS-240" target="sf_FIDJaUl7v7Dqxa3QS-318">
          <mxGeometry relative="1" as="geometry">
            <mxPoint x="380" y="270" as="targetPoint" />
          </mxGeometry>
        </mxCell>
        <mxCell id="sf_FIDJaUl7v7Dqxa3QS-329" value="GET" style="edgeLabel;html=1;align=center;verticalAlign=middle;resizable=0;points=[];" vertex="1" connectable="0" parent="sf_FIDJaUl7v7Dqxa3QS-243">
          <mxGeometry x="-0.0213" y="-2" relative="1" as="geometry">
            <mxPoint as="offset" />
          </mxGeometry>
        </mxCell>
        <mxCell id="sf_FIDJaUl7v7Dqxa3QS-240" value="Logged in?" style="strokeWidth=2;html=1;shape=mxgraph.flowchart.decision;whiteSpace=wrap;" vertex="1" parent="sf_FIDJaUl7v7Dqxa3QS-8">
          <mxGeometry x="330" y="50" width="100" height="100" as="geometry" />
        </mxCell>
        <mxCell id="sf_FIDJaUl7v7Dqxa3QS-318" value="Login" style="rounded=1;whiteSpace=wrap;html=1;" vertex="1" parent="sf_FIDJaUl7v7Dqxa3QS-8">
          <mxGeometry x="20" y="540" width="250" height="60" as="geometry" />
        </mxCell>
        <mxCell id="sf_FIDJaUl7v7Dqxa3QS-319" value="302" style="text;html=1;align=center;verticalAlign=middle;resizable=0;points=[];autosize=1;strokeColor=none;fillColor=none;rounded=1;strokeWidth=1;fontColor=#FF8000;" vertex="1" parent="sf_FIDJaUl7v7Dqxa3QS-8">
          <mxGeometry x="20" y="540" width="40" height="30" as="geometry" />
        </mxCell>
        <mxCell id="sf_FIDJaUl7v7Dqxa3QS-320" value="idp=STRING&lt;br&gt;SAMLRESPONSE=STRING" style="text;html=1;align=left;verticalAlign=middle;resizable=0;points=[];autosize=1;strokeColor=none;fillColor=none;" vertex="1" parent="sf_FIDJaUl7v7Dqxa3QS-8">
          <mxGeometry x="220" y="280" width="170" height="40" as="geometry" />
        </mxCell>
        <mxCell id="sf_FIDJaUl7v7Dqxa3QS-321" value="&lt;div&gt;Cookies&lt;br&gt;ASP.NET_SessionId=STRING&lt;/div&gt;&lt;div&gt;InfomentorSSO=String&lt;br&gt;&lt;/div&gt;" style="text;html=1;align=left;verticalAlign=middle;resizable=0;points=[];autosize=1;strokeColor=none;fillColor=none;" vertex="1" parent="sf_FIDJaUl7v7Dqxa3QS-8">
          <mxGeometry x="380" y="500" width="180" height="60" as="geometry" />
        </mxCell>
        <mxCell id="sf_FIDJaUl7v7Dqxa3QS-203" value="idp=STRING" style="text;html=1;align=center;verticalAlign=middle;resizable=0;points=[];autosize=1;strokeColor=none;fillColor=none;" vertex="1" parent="WIyWlLk6GJQsqaUBKTNV-1">
          <mxGeometry x="10" y="20" width="90" height="30" as="geometry" />
        </mxCell>
        <mxCell id="sf_FIDJaUl7v7Dqxa3QS-205" value="&lt;div&gt;login001.stockholm.se/affwebservices&lt;/div&gt;" style="swimlane;whiteSpace=wrap;html=1;rounded=1;shadow=0;glass=0;strokeColor=default;strokeWidth=3;align=center;verticalAlign=middle;fontFamily=Helvetica;fontSize=12;fontColor=default;fontStyle=1;fillColor=default;" vertex="1" parent="WIyWlLk6GJQsqaUBKTNV-1">
          <mxGeometry x="610" y="140" width="400" height="830" as="geometry" />
        </mxCell>
        <mxCell id="sf_FIDJaUl7v7Dqxa3QS-4" value="public/saml2sso" style="rounded=1;whiteSpace=wrap;html=1;" vertex="1" parent="sf_FIDJaUl7v7Dqxa3QS-205">
          <mxGeometry x="30" y="70" width="120" height="60" as="geometry" />
        </mxCell>
        <mxCell id="sf_FIDJaUl7v7Dqxa3QS-216" value="302" style="text;html=1;align=center;verticalAlign=middle;resizable=0;points=[];autosize=1;strokeColor=none;fillColor=none;rounded=1;strokeWidth=1;fontColor=#FF8000;" vertex="1" parent="sf_FIDJaUl7v7Dqxa3QS-205">
          <mxGeometry x="30" y="70" width="40" height="30" as="geometry" />
        </mxCell>
        <mxCell id="sf_FIDJaUl7v7Dqxa3QS-206" style="edgeStyle=orthogonalEdgeStyle;rounded=0;orthogonalLoop=1;jettySize=auto;html=1;exitX=1;exitY=0.5;exitDx=0;exitDy=0;exitPerimeter=0;" edge="1" parent="WIyWlLk6GJQsqaUBKTNV-1" source="sf_FIDJaUl7v7Dqxa3QS-240" target="sf_FIDJaUl7v7Dqxa3QS-4">
          <mxGeometry relative="1" as="geometry" />
        </mxCell>
        <mxCell id="sf_FIDJaUl7v7Dqxa3QS-238" value="GET" style="edgeLabel;html=1;align=center;verticalAlign=middle;resizable=0;points=[];" vertex="1" connectable="0" parent="sf_FIDJaUl7v7Dqxa3QS-206">
          <mxGeometry x="-0.0214" relative="1" as="geometry">
            <mxPoint as="offset" />
          </mxGeometry>
        </mxCell>
        <mxCell id="sf_FIDJaUl7v7Dqxa3QS-207" value="login001.stockholm.se" style="swimlane;whiteSpace=wrap;html=1;rounded=1;shadow=0;glass=0;strokeColor=default;strokeWidth=3;align=center;verticalAlign=middle;fontFamily=Helvetica;fontSize=12;fontColor=default;fontStyle=1;fillColor=default;" vertex="1" parent="WIyWlLk6GJQsqaUBKTNV-1">
          <mxGeometry x="590" y="60" width="1140" height="1500" as="geometry" />
        </mxCell>
        <mxCell id="sf_FIDJaUl7v7Dqxa3QS-208" value="redirectjsp/elev.jsp" style="rounded=1;whiteSpace=wrap;html=1;" vertex="1" parent="sf_FIDJaUl7v7Dqxa3QS-207">
          <mxGeometry x="50" y="820" width="120" height="60" as="geometry" />
        </mxCell>
        <mxCell id="sf_FIDJaUl7v7Dqxa3QS-211" value="&lt;div&gt;login001.stockholm.se/siteminderagent&lt;/div&gt;" style="swimlane;whiteSpace=wrap;html=1;rounded=1;shadow=0;glass=0;strokeColor=default;strokeWidth=3;align=center;verticalAlign=middle;fontFamily=Helvetica;fontSize=12;fontColor=default;fontStyle=1;fillColor=default;" vertex="1" parent="sf_FIDJaUl7v7Dqxa3QS-207">
          <mxGeometry x="440" y="80" width="680" height="660" as="geometry" />
        </mxCell>
        <mxCell id="sf_FIDJaUl7v7Dqxa3QS-212" value="forms/aelever.jsp" style="rounded=1;whiteSpace=wrap;html=1;" vertex="1" parent="sf_FIDJaUl7v7Dqxa3QS-211">
          <mxGeometry x="30" y="70" width="120" height="60" as="geometry" />
        </mxCell>
        <mxCell id="sf_FIDJaUl7v7Dqxa3QS-221" value="200" style="text;html=1;align=center;verticalAlign=middle;resizable=0;points=[];autosize=1;strokeColor=none;fillColor=none;rounded=1;strokeWidth=1;fontColor=#009900;" vertex="1" parent="sf_FIDJaUl7v7Dqxa3QS-211">
          <mxGeometry x="30" y="70" width="40" height="30" as="geometry" />
        </mxCell>
        <mxCell id="sf_FIDJaUl7v7Dqxa3QS-225" value="Login Site" style="text;html=1;align=center;verticalAlign=middle;whiteSpace=wrap;rounded=0;" vertex="1" parent="sf_FIDJaUl7v7Dqxa3QS-211">
          <mxGeometry x="60" y="40" width="60" height="30" as="geometry" />
        </mxCell>
        <mxCell id="sf_FIDJaUl7v7Dqxa3QS-252" style="edgeStyle=orthogonalEdgeStyle;rounded=0;orthogonalLoop=1;jettySize=auto;html=1;exitX=0.5;exitY=0;exitDx=0;exitDy=0;exitPerimeter=0;entryX=0.5;entryY=0;entryDx=0;entryDy=0;" edge="1" parent="sf_FIDJaUl7v7Dqxa3QS-211" source="sf_FIDJaUl7v7Dqxa3QS-248" target="sf_FIDJaUl7v7Dqxa3QS-229">
          <mxGeometry relative="1" as="geometry">
            <mxPoint x="420" y="330" as="targetPoint" />
          </mxGeometry>
        </mxCell>
        <mxCell id="sf_FIDJaUl7v7Dqxa3QS-261" value="GET" style="edgeLabel;html=1;align=center;verticalAlign=middle;resizable=0;points=[];" vertex="1" connectable="0" parent="sf_FIDJaUl7v7Dqxa3QS-252">
          <mxGeometry x="-0.4436" y="-4" relative="1" as="geometry">
            <mxPoint x="46" y="-4" as="offset" />
          </mxGeometry>
        </mxCell>
        <mxCell id="sf_FIDJaUl7v7Dqxa3QS-248" value="How to log in?" style="strokeWidth=2;html=1;shape=mxgraph.flowchart.decision;whiteSpace=wrap;" vertex="1" parent="sf_FIDJaUl7v7Dqxa3QS-211">
          <mxGeometry x="190" y="120" width="100" height="100" as="geometry" />
        </mxCell>
        <mxCell id="sf_FIDJaUl7v7Dqxa3QS-250" style="edgeStyle=orthogonalEdgeStyle;rounded=0;orthogonalLoop=1;jettySize=auto;html=1;exitX=1;exitY=0.5;exitDx=0;exitDy=0;entryX=0;entryY=0.5;entryDx=0;entryDy=0;entryPerimeter=0;" edge="1" parent="sf_FIDJaUl7v7Dqxa3QS-211" source="sf_FIDJaUl7v7Dqxa3QS-212" target="sf_FIDJaUl7v7Dqxa3QS-248">
          <mxGeometry relative="1" as="geometry" />
        </mxCell>
        <mxCell id="sf_FIDJaUl7v7Dqxa3QS-271" style="edgeStyle=orthogonalEdgeStyle;rounded=0;orthogonalLoop=1;jettySize=auto;html=1;exitX=0.5;exitY=1;exitDx=0;exitDy=0;entryX=0.5;entryY=0;entryDx=0;entryDy=0;" edge="1" parent="sf_FIDJaUl7v7Dqxa3QS-211" source="sf_FIDJaUl7v7Dqxa3QS-229" target="sf_FIDJaUl7v7Dqxa3QS-269">
          <mxGeometry relative="1" as="geometry" />
        </mxCell>
        <mxCell id="sf_FIDJaUl7v7Dqxa3QS-273" value="POST" style="edgeLabel;html=1;align=center;verticalAlign=middle;resizable=0;points=[];" vertex="1" connectable="0" parent="sf_FIDJaUl7v7Dqxa3QS-271">
          <mxGeometry x="-0.1074" relative="1" as="geometry">
            <mxPoint y="92" as="offset" />
          </mxGeometry>
        </mxCell>
        <mxCell id="sf_FIDJaUl7v7Dqxa3QS-229" value="&lt;div&gt;forms/loginForm.jsp&lt;/div&gt;" style="rounded=1;whiteSpace=wrap;html=1;verticalAlign=middle;" vertex="1" parent="sf_FIDJaUl7v7Dqxa3QS-211">
          <mxGeometry x="429" y="300" width="120" height="60" as="geometry" />
        </mxCell>
        <mxCell id="sf_FIDJaUl7v7Dqxa3QS-230" value="200" style="text;html=1;align=center;verticalAlign=middle;resizable=0;points=[];autosize=1;strokeColor=none;fillColor=none;rounded=1;strokeWidth=1;fontColor=#009900;" vertex="1" parent="sf_FIDJaUl7v7Dqxa3QS-211">
          <mxGeometry x="429" y="300" width="40" height="30" as="geometry" />
        </mxCell>
        <mxCell id="sf_FIDJaUl7v7Dqxa3QS-257" value="User+Pass" style="text;html=1;align=center;verticalAlign=middle;resizable=0;points=[];autosize=1;strokeColor=none;fillColor=none;" vertex="1" parent="sf_FIDJaUl7v7Dqxa3QS-211">
          <mxGeometry x="259" y="70" width="80" height="30" as="geometry" />
        </mxCell>
        <mxCell id="sf_FIDJaUl7v7Dqxa3QS-258" value="BankID" style="text;html=1;align=center;verticalAlign=middle;resizable=0;points=[];autosize=1;strokeColor=none;fillColor=none;" vertex="1" parent="sf_FIDJaUl7v7Dqxa3QS-211">
          <mxGeometry x="320" y="170" width="70" height="30" as="geometry" />
        </mxCell>
        <mxCell id="sf_FIDJaUl7v7Dqxa3QS-260" value="FrejaID" style="text;html=1;align=center;verticalAlign=middle;resizable=0;points=[];autosize=1;strokeColor=none;fillColor=none;" vertex="1" parent="sf_FIDJaUl7v7Dqxa3QS-211">
          <mxGeometry x="164" y="215" width="70" height="30" as="geometry" />
        </mxCell>
        <mxCell id="sf_FIDJaUl7v7Dqxa3QS-264" value="&lt;div&gt;SMAGENTNAME=STRING&lt;/div&gt;&lt;div&gt;POSTTARGET=URL&lt;br&gt;&lt;/div&gt;&lt;div&gt;TARGET=URL&lt;/div&gt;&lt;div&gt;SigAlg=STRING&lt;/div&gt;&lt;div&gt;Signature=STRING&lt;/div&gt;&lt;div&gt;SMPORTALURL=URL&lt;/div&gt;&lt;div&gt;SAMLTRANSACTIONID=UUID?&lt;br&gt;&lt;/div&gt;" style="text;html=1;align=left;verticalAlign=middle;resizable=0;points=[];autosize=1;strokeColor=none;fillColor=none;fontSize=10;" vertex="1" parent="sf_FIDJaUl7v7Dqxa3QS-211">
          <mxGeometry x="500" y="110" width="170" height="100" as="geometry" />
        </mxCell>
        <mxCell id="sf_FIDJaUl7v7Dqxa3QS-265" value="&lt;div&gt;Cookies&lt;/div&gt;&lt;div&gt;JSESSIONID=STRING&lt;/div&gt;&lt;div&gt;SMIDENTITY=STRING&lt;br&gt;&lt;/div&gt;" style="text;html=1;align=left;verticalAlign=middle;resizable=0;points=[];autosize=1;strokeColor=none;fillColor=none;" vertex="1" parent="sf_FIDJaUl7v7Dqxa3QS-211">
          <mxGeometry x="500" y="200" width="150" height="60" as="geometry" />
        </mxCell>
        <mxCell id="sf_FIDJaUl7v7Dqxa3QS-269" value="&lt;div&gt;forms/login.fcc&lt;/div&gt;" style="rounded=1;whiteSpace=wrap;html=1;verticalAlign=middle;" vertex="1" parent="sf_FIDJaUl7v7Dqxa3QS-211">
          <mxGeometry x="429" y="580" width="120" height="60" as="geometry" />
        </mxCell>
        <mxCell id="sf_FIDJaUl7v7Dqxa3QS-270" value="302" style="text;html=1;align=center;verticalAlign=middle;resizable=0;points=[];autosize=1;strokeColor=none;fillColor=none;rounded=1;strokeWidth=1;fontColor=#FF8000;" vertex="1" parent="sf_FIDJaUl7v7Dqxa3QS-211">
          <mxGeometry x="429" y="580" width="40" height="30" as="geometry" />
        </mxCell>
        <mxCell id="sf_FIDJaUl7v7Dqxa3QS-274" value="&lt;div&gt;user=username(STRING)&lt;/div&gt;&lt;div&gt;password=password(STRING)&lt;/div&gt;&lt;div&gt;SMENC=ENCODING&lt;br&gt;LOCALE=LOCALE&lt;/div&gt;&lt;div&gt;target=URL&lt;/div&gt;&lt;div&gt;smauthreason=?|NULL&lt;/div&gt;&lt;div&gt;smagentname=STRING&lt;/div&gt;&lt;div&gt;smquerydata=?|NULL&lt;/div&gt;&lt;div&gt;postpreservationdata=?|NULL&lt;/div&gt;&lt;div&gt;submit=?|EMPTY&lt;br&gt;&lt;/div&gt;" style="text;html=1;align=left;verticalAlign=middle;resizable=0;points=[];autosize=1;strokeColor=none;fillColor=none;fontSize=10;" vertex="1" parent="sf_FIDJaUl7v7Dqxa3QS-211">
          <mxGeometry x="500" y="360" width="170" height="130" as="geometry" />
        </mxCell>
        <mxCell id="sf_FIDJaUl7v7Dqxa3QS-275" value="&lt;div&gt;Cookies&lt;/div&gt;&lt;div&gt;JSESSIONID=STRING&lt;/div&gt;&lt;div&gt;SMIDENTITY=STRING&lt;br&gt;&lt;/div&gt;" style="text;html=1;align=left;verticalAlign=middle;resizable=0;points=[];autosize=1;strokeColor=none;fillColor=none;" vertex="1" parent="sf_FIDJaUl7v7Dqxa3QS-211">
          <mxGeometry x="500" y="485" width="150" height="60" as="geometry" />
        </mxCell>
        <mxCell id="sf_FIDJaUl7v7Dqxa3QS-218" value="&lt;div style=&quot;font-size: 10px;&quot;&gt;SAMLRequest=STRING&lt;/div&gt;&lt;div style=&quot;font-size: 10px;&quot;&gt;SigAlg=URI&lt;/div&gt;&lt;div style=&quot;font-size: 10px;&quot;&gt;Signature=STRING&lt;/div&gt;&lt;div style=&quot;font-size: 10px;&quot;&gt;SMPORTALURL=URL&lt;/div&gt;&lt;div style=&quot;font-size: 10px;&quot;&gt;SAMLTRANSACTIONID=UUID&lt;br style=&quot;font-size: 10px;&quot;&gt;&lt;/div&gt;" style="text;html=1;align=left;verticalAlign=middle;resizable=0;points=[];autosize=1;strokeColor=none;fillColor=none;fontSize=10;" vertex="1" parent="sf_FIDJaUl7v7Dqxa3QS-207">
          <mxGeometry x="90" y="540" width="160" height="70" as="geometry" />
        </mxCell>
        <mxCell id="sf_FIDJaUl7v7Dqxa3QS-219" value="&lt;div&gt;Cookies&lt;/div&gt;&lt;div&gt;SMIDENITY=STRING&lt;br&gt;&lt;/div&gt;" style="text;html=1;align=left;verticalAlign=middle;resizable=0;points=[];autosize=1;strokeColor=none;fillColor=none;" vertex="1" parent="sf_FIDJaUl7v7Dqxa3QS-207">
          <mxGeometry x="90" y="605" width="140" height="40" as="geometry" />
        </mxCell>
        <mxCell id="sf_FIDJaUl7v7Dqxa3QS-220" value="302" style="text;html=1;align=center;verticalAlign=middle;resizable=0;points=[];autosize=1;strokeColor=none;fillColor=none;rounded=1;strokeWidth=1;fontColor=#FF8000;" vertex="1" parent="sf_FIDJaUl7v7Dqxa3QS-207">
          <mxGeometry x="50" y="820" width="40" height="30" as="geometry" />
        </mxCell>
        <mxCell id="sf_FIDJaUl7v7Dqxa3QS-222" value="&lt;div&gt;TYPE=INT&lt;/div&gt;&lt;div&gt;REALMOID=UUID?&lt;/div&gt;&lt;div&gt;GUID=INT&lt;/div&gt;&lt;div&gt;SMAUTHREASON=INT&lt;/div&gt;&lt;div&gt;METHOD=HTTP_METHOD&lt;/div&gt;&lt;div&gt;SMAGENTNAME=STRING&lt;/div&gt;&lt;div&gt;TARGET=URL?&lt;br&gt;&lt;/div&gt;" style="text;html=1;align=left;verticalAlign=middle;resizable=0;points=[];autosize=1;strokeColor=none;fillColor=none;fontSize=10;" vertex="1" parent="sf_FIDJaUl7v7Dqxa3QS-207">
          <mxGeometry x="290" y="180" width="150" height="100" as="geometry" />
        </mxCell>
        <mxCell id="sf_FIDJaUl7v7Dqxa3QS-223" value="&lt;div&gt;Cookies&lt;/div&gt;&lt;div&gt;SMIDENITY=STRING&lt;br&gt;&lt;/div&gt;" style="text;html=1;align=left;verticalAlign=middle;resizable=0;points=[];autosize=1;strokeColor=none;fillColor=none;" vertex="1" parent="sf_FIDJaUl7v7Dqxa3QS-207">
          <mxGeometry x="290" y="280" width="140" height="40" as="geometry" />
        </mxCell>
        <mxCell id="sf_FIDJaUl7v7Dqxa3QS-266" value="&lt;div&gt;login001.stockholm.se/NECSelev&lt;/div&gt;" style="swimlane;whiteSpace=wrap;html=1;rounded=1;shadow=0;glass=0;strokeColor=default;strokeWidth=3;align=center;verticalAlign=middle;fontFamily=Helvetica;fontSize=12;fontColor=default;fontStyle=1;fillColor=default;" vertex="1" parent="sf_FIDJaUl7v7Dqxa3QS-207">
          <mxGeometry x="20" y="1210" width="400" height="270" as="geometry" />
        </mxCell>
        <mxCell id="sf_FIDJaUl7v7Dqxa3QS-267" value="form/b64startpage.jsp" style="rounded=1;whiteSpace=wrap;html=1;" vertex="1" parent="sf_FIDJaUl7v7Dqxa3QS-266">
          <mxGeometry x="10" y="180" width="120" height="60" as="geometry" />
        </mxCell>
        <mxCell id="sf_FIDJaUl7v7Dqxa3QS-268" value="302" style="text;html=1;align=center;verticalAlign=middle;resizable=0;points=[];autosize=1;strokeColor=none;fillColor=none;rounded=1;strokeWidth=1;fontColor=#FF8000;" vertex="1" parent="sf_FIDJaUl7v7Dqxa3QS-266">
          <mxGeometry x="10" y="180" width="40" height="30" as="geometry" />
        </mxCell>
        <mxCell id="sf_FIDJaUl7v7Dqxa3QS-281" value="&lt;div&gt;This is a redirect page&lt;/div&gt;&lt;div&gt;&lt;br&gt;&lt;/div&gt;" style="text;html=1;align=center;verticalAlign=middle;resizable=0;points=[];autosize=1;strokeColor=none;fillColor=none;" vertex="1" parent="sf_FIDJaUl7v7Dqxa3QS-266">
          <mxGeometry x="-5" y="240" width="150" height="40" as="geometry" />
        </mxCell>
        <mxCell id="sf_FIDJaUl7v7Dqxa3QS-317" value="&lt;div style=&quot;font-size: 10px;&quot;&gt;Cookies&lt;/div&gt;&lt;div style=&quot;font-size: 10px;&quot;&gt;SMIDENITY=STRING&lt;/div&gt;&lt;div style=&quot;font-size: 10px;&quot;&gt;SMLOCALE=LOCALE,LANG&lt;/div&gt;&lt;div style=&quot;font-size: 10px;&quot;&gt;SMSESSION=STRING&lt;/div&gt;&lt;div style=&quot;font-size: 10px;&quot;&gt;JSESSIONID=STRING&lt;br style=&quot;font-size: 10px;&quot;&gt;&lt;/div&gt;" style="text;html=1;align=left;verticalAlign=middle;resizable=0;points=[];autosize=1;strokeColor=none;fillColor=none;fontSize=10;" vertex="1" parent="sf_FIDJaUl7v7Dqxa3QS-266">
          <mxGeometry x="70" y="110" width="150" height="70" as="geometry" />
        </mxCell>
        <mxCell id="sf_FIDJaUl7v7Dqxa3QS-276" style="edgeStyle=orthogonalEdgeStyle;rounded=0;orthogonalLoop=1;jettySize=auto;html=1;exitX=0.5;exitY=1;exitDx=0;exitDy=0;entryX=1;entryY=0.5;entryDx=0;entryDy=0;" edge="1" parent="sf_FIDJaUl7v7Dqxa3QS-207" source="sf_FIDJaUl7v7Dqxa3QS-269" target="sf_FIDJaUl7v7Dqxa3QS-267">
          <mxGeometry relative="1" as="geometry" />
        </mxCell>
        <mxCell id="sf_FIDJaUl7v7Dqxa3QS-277" value="GET" style="edgeLabel;html=1;align=center;verticalAlign=middle;resizable=0;points=[];" vertex="1" connectable="0" parent="sf_FIDJaUl7v7Dqxa3QS-276">
          <mxGeometry x="0.2836" y="1" relative="1" as="geometry">
            <mxPoint x="5" y="-1" as="offset" />
          </mxGeometry>
        </mxCell>
        <mxCell id="sf_FIDJaUl7v7Dqxa3QS-278" value="startpage=BASE64(URL)" style="text;html=1;align=center;verticalAlign=middle;resizable=0;points=[];autosize=1;strokeColor=none;fillColor=none;" vertex="1" parent="sf_FIDJaUl7v7Dqxa3QS-207">
          <mxGeometry x="930" y="790" width="160" height="30" as="geometry" />
        </mxCell>
        <mxCell id="sf_FIDJaUl7v7Dqxa3QS-279" value="&lt;div align=&quot;left&quot;&gt;Cookies&lt;/div&gt;&lt;div align=&quot;left&quot;&gt;SMIDENITY=STRING&lt;br&gt;SMLOCALE=LOCALE,LANG&lt;/div&gt;&lt;div align=&quot;left&quot;&gt;SMSESSION=STRING&lt;br&gt;&lt;/div&gt;&lt;div align=&quot;left&quot;&gt;&lt;br&gt;&lt;/div&gt;" style="text;html=1;align=center;verticalAlign=middle;resizable=0;points=[];autosize=1;strokeColor=none;fillColor=none;" vertex="1" parent="sf_FIDJaUl7v7Dqxa3QS-207">
          <mxGeometry x="930" y="810" width="180" height="90" as="geometry" />
        </mxCell>
        <mxCell id="sf_FIDJaUl7v7Dqxa3QS-280" value="&lt;div&gt;This is a redirect page&lt;/div&gt;&lt;div&gt;&lt;br&gt;&lt;/div&gt;" style="text;html=1;align=center;verticalAlign=middle;resizable=0;points=[];autosize=1;strokeColor=none;fillColor=none;" vertex="1" parent="sf_FIDJaUl7v7Dqxa3QS-207">
          <mxGeometry x="35" y="880" width="150" height="40" as="geometry" />
        </mxCell>
        <mxCell id="sf_FIDJaUl7v7Dqxa3QS-282" value="&lt;div&gt;login001.stockholm.se/NECSedu&lt;/div&gt;" style="swimlane;whiteSpace=wrap;html=1;rounded=1;shadow=0;glass=0;strokeColor=default;strokeWidth=3;align=center;verticalAlign=middle;fontFamily=Helvetica;fontSize=12;fontColor=default;fontStyle=1;fillColor=default;" vertex="1" parent="sf_FIDJaUl7v7Dqxa3QS-207">
          <mxGeometry x="20" y="920" width="400" height="280" as="geometry" />
        </mxCell>
        <mxCell id="sf_FIDJaUl7v7Dqxa3QS-283" value="mbid/b64startpage.jsp" style="rounded=1;whiteSpace=wrap;html=1;" vertex="1" parent="sf_FIDJaUl7v7Dqxa3QS-282">
          <mxGeometry x="10" y="200" width="120" height="60" as="geometry" />
        </mxCell>
        <mxCell id="sf_FIDJaUl7v7Dqxa3QS-284" value="302" style="text;html=1;align=center;verticalAlign=middle;resizable=0;points=[];autosize=1;strokeColor=none;fillColor=none;rounded=1;strokeWidth=1;fontColor=#FF8000;" vertex="1" parent="sf_FIDJaUl7v7Dqxa3QS-282">
          <mxGeometry x="10" y="200" width="40" height="30" as="geometry" />
        </mxCell>
        <mxCell id="sf_FIDJaUl7v7Dqxa3QS-285" value="&lt;div&gt;This is a redirect page&lt;/div&gt;&lt;div&gt;&lt;br&gt;&lt;/div&gt;" style="text;html=1;align=center;verticalAlign=middle;resizable=0;points=[];autosize=1;strokeColor=none;fillColor=none;" vertex="1" parent="sf_FIDJaUl7v7Dqxa3QS-282">
          <mxGeometry y="170" width="150" height="40" as="geometry" />
        </mxCell>
        <mxCell id="sf_FIDJaUl7v7Dqxa3QS-286" value="&lt;div&gt;freja/b64startpage.jsp&lt;/div&gt;" style="rounded=1;whiteSpace=wrap;html=1;" vertex="1" parent="sf_FIDJaUl7v7Dqxa3QS-282">
          <mxGeometry x="10" y="100" width="120" height="60" as="geometry" />
        </mxCell>
        <mxCell id="sf_FIDJaUl7v7Dqxa3QS-287" value="&lt;div&gt;This is a redirect page&lt;/div&gt;&lt;div&gt;&lt;br&gt;&lt;/div&gt;" style="text;html=1;align=center;verticalAlign=middle;resizable=0;points=[];autosize=1;strokeColor=none;fillColor=none;" vertex="1" parent="sf_FIDJaUl7v7Dqxa3QS-282">
          <mxGeometry y="70" width="150" height="40" as="geometry" />
        </mxCell>
        <mxCell id="sf_FIDJaUl7v7Dqxa3QS-288" value="302" style="text;html=1;align=center;verticalAlign=middle;resizable=0;points=[];autosize=1;strokeColor=none;fillColor=none;rounded=1;strokeWidth=1;fontColor=#FF8000;" vertex="1" parent="sf_FIDJaUl7v7Dqxa3QS-282">
          <mxGeometry x="10" y="100" width="40" height="30" as="geometry" />
        </mxCell>
        <mxCell id="sf_FIDJaUl7v7Dqxa3QS-316" value="&lt;div style=&quot;font-size: 10px;&quot;&gt;SAMLRequest=STRING&lt;/div&gt;&lt;div style=&quot;font-size: 10px;&quot;&gt;SigAlg=URI&lt;/div&gt;&lt;div style=&quot;font-size: 10px;&quot;&gt;Signature=STRING&lt;/div&gt;&lt;div style=&quot;font-size: 10px;&quot;&gt;SMPORTALURL=URL&lt;/div&gt;&lt;div style=&quot;font-size: 10px;&quot;&gt;SAMLTRANSACTIONID=UUID&lt;br style=&quot;font-size: 10px;&quot;&gt;&lt;/div&gt;" style="text;html=1;align=left;verticalAlign=middle;resizable=0;points=[];autosize=1;strokeColor=none;fillColor=none;fontSize=10;" vertex="1" parent="sf_FIDJaUl7v7Dqxa3QS-282">
          <mxGeometry x="70" y="330" width="160" height="70" as="geometry" />
        </mxCell>
        <mxCell id="sf_FIDJaUl7v7Dqxa3QS-256" style="edgeStyle=orthogonalEdgeStyle;rounded=0;orthogonalLoop=1;jettySize=auto;html=1;exitX=0.5;exitY=1;exitDx=0;exitDy=0;exitPerimeter=0;entryX=1;entryY=0.5;entryDx=0;entryDy=0;" edge="1" parent="sf_FIDJaUl7v7Dqxa3QS-207" source="sf_FIDJaUl7v7Dqxa3QS-248" target="sf_FIDJaUl7v7Dqxa3QS-286">
          <mxGeometry relative="1" as="geometry">
            <mxPoint x="570" y="660" as="targetPoint" />
          </mxGeometry>
        </mxCell>
        <mxCell id="sf_FIDJaUl7v7Dqxa3QS-263" value="GET" style="edgeLabel;html=1;align=center;verticalAlign=middle;resizable=0;points=[];" vertex="1" connectable="0" parent="sf_FIDJaUl7v7Dqxa3QS-256">
          <mxGeometry x="-0.0531" y="-1" relative="1" as="geometry">
            <mxPoint x="-39" y="151" as="offset" />
          </mxGeometry>
        </mxCell>
        <mxCell id="sf_FIDJaUl7v7Dqxa3QS-289" value="Undocumented" style="edgeLabel;html=1;align=center;verticalAlign=middle;resizable=0;points=[];" vertex="1" connectable="0" parent="sf_FIDJaUl7v7Dqxa3QS-256">
          <mxGeometry x="0.1361" y="2" relative="1" as="geometry">
            <mxPoint as="offset" />
          </mxGeometry>
        </mxCell>
        <mxCell id="sf_FIDJaUl7v7Dqxa3QS-255" style="edgeStyle=orthogonalEdgeStyle;rounded=0;orthogonalLoop=1;jettySize=auto;html=1;exitX=1;exitY=0.5;exitDx=0;exitDy=0;exitPerimeter=0;entryX=1;entryY=0.5;entryDx=0;entryDy=0;" edge="1" parent="sf_FIDJaUl7v7Dqxa3QS-207" source="sf_FIDJaUl7v7Dqxa3QS-248" target="sf_FIDJaUl7v7Dqxa3QS-283">
          <mxGeometry relative="1" as="geometry">
            <mxPoint x="759" y="660" as="targetPoint" />
          </mxGeometry>
        </mxCell>
        <mxCell id="sf_FIDJaUl7v7Dqxa3QS-262" value="GET" style="edgeLabel;html=1;align=center;verticalAlign=middle;resizable=0;points=[];" vertex="1" connectable="0" parent="sf_FIDJaUl7v7Dqxa3QS-255">
          <mxGeometry x="-0.4505" y="-5" relative="1" as="geometry">
            <mxPoint x="5" y="288" as="offset" />
          </mxGeometry>
        </mxCell>
        <mxCell id="sf_FIDJaUl7v7Dqxa3QS-290" value="Undocumented" style="edgeLabel;html=1;align=center;verticalAlign=middle;resizable=0;points=[];" vertex="1" connectable="0" parent="sf_FIDJaUl7v7Dqxa3QS-255">
          <mxGeometry x="0.3123" relative="1" as="geometry">
            <mxPoint as="offset" />
          </mxGeometry>
        </mxCell>
        <mxCell id="sf_FIDJaUl7v7Dqxa3QS-293" value="&lt;div&gt;This is a redirect page&lt;/div&gt;&lt;div&gt;&lt;br&gt;&lt;/div&gt;" style="text;html=1;align=center;verticalAlign=middle;resizable=0;points=[];autosize=1;strokeColor=none;fillColor=none;" vertex="1" parent="sf_FIDJaUl7v7Dqxa3QS-207">
          <mxGeometry x="35" y="120" width="150" height="40" as="geometry" />
        </mxCell>
        <mxCell id="sf_FIDJaUl7v7Dqxa3QS-310" style="edgeStyle=orthogonalEdgeStyle;rounded=0;orthogonalLoop=1;jettySize=auto;html=1;exitX=0.5;exitY=0;exitDx=0;exitDy=0;exitPerimeter=0;entryX=0;entryY=0.5;entryDx=0;entryDy=0;" edge="1" parent="sf_FIDJaUl7v7Dqxa3QS-207" source="sf_FIDJaUl7v7Dqxa3QS-294" target="sf_FIDJaUl7v7Dqxa3QS-212">
          <mxGeometry relative="1" as="geometry">
            <Array as="points">
              <mxPoint x="290" y="450" />
              <mxPoint x="290" y="180" />
            </Array>
          </mxGeometry>
        </mxCell>
        <mxCell id="sf_FIDJaUl7v7Dqxa3QS-326" value="GET" style="edgeLabel;html=1;align=center;verticalAlign=middle;resizable=0;points=[];" vertex="1" connectable="0" parent="sf_FIDJaUl7v7Dqxa3QS-310">
          <mxGeometry x="-0.5199" relative="1" as="geometry">
            <mxPoint as="offset" />
          </mxGeometry>
        </mxCell>
        <mxCell id="sf_FIDJaUl7v7Dqxa3QS-294" value="Returning to infomentor?" style="strokeWidth=2;html=1;shape=mxgraph.flowchart.decision;whiteSpace=wrap;" vertex="1" parent="sf_FIDJaUl7v7Dqxa3QS-207">
          <mxGeometry x="310" y="450" width="100" height="100" as="geometry" />
        </mxCell>
        <mxCell id="sf_FIDJaUl7v7Dqxa3QS-304" style="edgeStyle=orthogonalEdgeStyle;rounded=0;orthogonalLoop=1;jettySize=auto;html=1;exitX=0.5;exitY=1;exitDx=0;exitDy=0;exitPerimeter=0;entryX=0.5;entryY=0;entryDx=0;entryDy=0;" edge="1" parent="sf_FIDJaUl7v7Dqxa3QS-207" source="sf_FIDJaUl7v7Dqxa3QS-300" target="sf_FIDJaUl7v7Dqxa3QS-208">
          <mxGeometry relative="1" as="geometry">
            <Array as="points">
              <mxPoint x="90" y="800" />
              <mxPoint x="110" y="800" />
            </Array>
          </mxGeometry>
        </mxCell>
        <mxCell id="sf_FIDJaUl7v7Dqxa3QS-323" value="GET" style="edgeLabel;html=1;align=center;verticalAlign=middle;resizable=0;points=[];" vertex="1" connectable="0" parent="sf_FIDJaUl7v7Dqxa3QS-304">
          <mxGeometry x="0.2114" y="2" relative="1" as="geometry">
            <mxPoint as="offset" />
          </mxGeometry>
        </mxCell>
        <mxCell id="sf_FIDJaUl7v7Dqxa3QS-300" value="Returning to infomentor?" style="strokeWidth=2;html=1;shape=mxgraph.flowchart.decision;whiteSpace=wrap;" vertex="1" parent="sf_FIDJaUl7v7Dqxa3QS-207">
          <mxGeometry x="40" y="360" width="100" height="100" as="geometry" />
        </mxCell>
        <mxCell id="sf_FIDJaUl7v7Dqxa3QS-303" value="&lt;div&gt;Yes&lt;/div&gt;" style="text;html=1;align=center;verticalAlign=middle;resizable=0;points=[];autosize=1;strokeColor=none;fillColor=none;" vertex="1" parent="sf_FIDJaUl7v7Dqxa3QS-207">
          <mxGeometry x="250" y="470" width="40" height="30" as="geometry" />
        </mxCell>
        <mxCell id="sf_FIDJaUl7v7Dqxa3QS-305" value="No" style="text;html=1;align=center;verticalAlign=middle;resizable=0;points=[];autosize=1;strokeColor=none;fillColor=none;" vertex="1" parent="sf_FIDJaUl7v7Dqxa3QS-207">
          <mxGeometry x="290" y="420" width="40" height="30" as="geometry" />
        </mxCell>
        <mxCell id="sf_FIDJaUl7v7Dqxa3QS-306" value="No" style="text;html=1;align=center;verticalAlign=middle;resizable=0;points=[];autosize=1;strokeColor=none;fillColor=none;" vertex="1" parent="sf_FIDJaUl7v7Dqxa3QS-207">
          <mxGeometry x="90" y="460" width="40" height="30" as="geometry" />
        </mxCell>
        <mxCell id="sf_FIDJaUl7v7Dqxa3QS-309" style="edgeStyle=orthogonalEdgeStyle;rounded=0;orthogonalLoop=1;jettySize=auto;html=1;exitX=1;exitY=0.5;exitDx=0;exitDy=0;entryX=0.5;entryY=1;entryDx=0;entryDy=0;entryPerimeter=0;" edge="1" parent="sf_FIDJaUl7v7Dqxa3QS-207" source="sf_FIDJaUl7v7Dqxa3QS-208" target="sf_FIDJaUl7v7Dqxa3QS-294">
          <mxGeometry relative="1" as="geometry" />
        </mxCell>
        <mxCell id="sf_FIDJaUl7v7Dqxa3QS-324" value="GET" style="edgeLabel;html=1;align=center;verticalAlign=middle;resizable=0;points=[];" vertex="1" connectable="0" parent="sf_FIDJaUl7v7Dqxa3QS-309">
          <mxGeometry x="0.2068" y="-3" relative="1" as="geometry">
            <mxPoint as="offset" />
          </mxGeometry>
        </mxCell>
        <mxCell id="sf_FIDJaUl7v7Dqxa3QS-312" value="&lt;div style=&quot;font-size: 10px;&quot;&gt;SAMLASSERTIONREF=STRING&lt;br&gt;SAMLRequest=STRING&lt;/div&gt;&lt;div style=&quot;font-size: 10px;&quot;&gt;SigAlg=URI&lt;/div&gt;&lt;div style=&quot;font-size: 10px;&quot;&gt;Signature=STRING&lt;br&gt;SAMLTRANSACTIONID=STRING&lt;br&gt;&lt;/div&gt;" style="text;html=1;align=left;verticalAlign=middle;resizable=0;points=[];autosize=1;strokeColor=none;fillColor=none;fontSize=10;" vertex="1" parent="sf_FIDJaUl7v7Dqxa3QS-207">
          <mxGeometry x="135" y="250" width="170" height="70" as="geometry" />
        </mxCell>
        <mxCell id="sf_FIDJaUl7v7Dqxa3QS-313" value="&lt;div style=&quot;font-size: 10px;&quot;&gt;Cookies&lt;/div&gt;&lt;div style=&quot;font-size: 10px;&quot;&gt;SMIDENITY=STRING&lt;/div&gt;&lt;div style=&quot;font-size: 10px;&quot;&gt;SMLOCALE=LOCALE,LANG&lt;/div&gt;&lt;div style=&quot;font-size: 10px;&quot;&gt;SMSESSION=STRING&lt;/div&gt;&lt;div style=&quot;font-size: 10px;&quot;&gt;JSESSIONID=STRING&lt;br style=&quot;font-size: 10px;&quot;&gt;&lt;/div&gt;" style="text;html=1;align=left;verticalAlign=middle;resizable=0;points=[];autosize=1;strokeColor=none;fillColor=none;fontSize=10;" vertex="1" parent="sf_FIDJaUl7v7Dqxa3QS-207">
          <mxGeometry x="135" y="320" width="150" height="70" as="geometry" />
        </mxCell>
        <mxCell id="sf_FIDJaUl7v7Dqxa3QS-315" style="edgeStyle=orthogonalEdgeStyle;rounded=0;orthogonalLoop=1;jettySize=auto;html=1;exitX=0.5;exitY=0;exitDx=0;exitDy=0;entryX=0;entryY=0.5;entryDx=0;entryDy=0;" edge="1" parent="sf_FIDJaUl7v7Dqxa3QS-207" source="sf_FIDJaUl7v7Dqxa3QS-267" target="sf_FIDJaUl7v7Dqxa3QS-208">
          <mxGeometry relative="1" as="geometry">
            <mxPoint x="89.70588235294122" y="1250" as="targetPoint" />
            <Array as="points">
              <mxPoint x="90" y="1250" />
              <mxPoint x="10" y="1250" />
              <mxPoint x="10" y="850" />
            </Array>
          </mxGeometry>
        </mxCell>
        <mxCell id="sf_FIDJaUl7v7Dqxa3QS-327" value="GET" style="edgeLabel;html=1;align=center;verticalAlign=middle;resizable=0;points=[];" vertex="1" connectable="0" parent="sf_FIDJaUl7v7Dqxa3QS-315">
          <mxGeometry x="-0.4551" y="1" relative="1" as="geometry">
            <mxPoint as="offset" />
          </mxGeometry>
        </mxCell>
        <mxCell id="sf_FIDJaUl7v7Dqxa3QS-241" value="No" style="text;html=1;align=center;verticalAlign=middle;resizable=0;points=[];autosize=1;strokeColor=none;fillColor=none;" vertex="1" parent="WIyWlLk6GJQsqaUBKTNV-1">
          <mxGeometry x="281" y="208" width="40" height="30" as="geometry" />
        </mxCell>
        <mxCell id="sf_FIDJaUl7v7Dqxa3QS-244" value="Yes" style="text;html=1;align=center;verticalAlign=middle;resizable=0;points=[];autosize=1;strokeColor=none;fillColor=none;" vertex="1" parent="WIyWlLk6GJQsqaUBKTNV-1">
          <mxGeometry x="231" y="288" width="40" height="30" as="geometry" />
        </mxCell>
        <mxCell id="sf_FIDJaUl7v7Dqxa3QS-301" style="edgeStyle=orthogonalEdgeStyle;rounded=0;orthogonalLoop=1;jettySize=auto;html=1;exitX=0.5;exitY=1;exitDx=0;exitDy=0;entryX=0.5;entryY=0;entryDx=0;entryDy=0;entryPerimeter=0;" edge="1" parent="WIyWlLk6GJQsqaUBKTNV-1" source="sf_FIDJaUl7v7Dqxa3QS-4" target="sf_FIDJaUl7v7Dqxa3QS-300">
          <mxGeometry relative="1" as="geometry" />
        </mxCell>
        <mxCell id="sf_FIDJaUl7v7Dqxa3QS-328" value="GET" style="edgeLabel;html=1;align=center;verticalAlign=middle;resizable=0;points=[];" vertex="1" connectable="0" parent="sf_FIDJaUl7v7Dqxa3QS-301">
          <mxGeometry x="0.2667" y="-1" relative="1" as="geometry">
            <mxPoint x="-1" as="offset" />
          </mxGeometry>
        </mxCell>
        <mxCell id="sf_FIDJaUl7v7Dqxa3QS-307" style="edgeStyle=orthogonalEdgeStyle;rounded=0;orthogonalLoop=1;jettySize=auto;html=1;exitX=0;exitY=0.5;exitDx=0;exitDy=0;exitPerimeter=0;entryX=0.75;entryY=1;entryDx=0;entryDy=0;" edge="1" parent="WIyWlLk6GJQsqaUBKTNV-1" source="sf_FIDJaUl7v7Dqxa3QS-300" target="sf_FIDJaUl7v7Dqxa3QS-1">
          <mxGeometry relative="1" as="geometry" />
        </mxCell>
        <mxCell id="sf_FIDJaUl7v7Dqxa3QS-322" value="POST" style="edgeLabel;html=1;align=center;verticalAlign=middle;resizable=0;points=[];" vertex="1" connectable="0" parent="sf_FIDJaUl7v7Dqxa3QS-307">
          <mxGeometry x="-0.1973" relative="1" as="geometry">
            <mxPoint as="offset" />
          </mxGeometry>
        </mxCell>
        <mxCell id="sf_FIDJaUl7v7Dqxa3QS-302" style="edgeStyle=orthogonalEdgeStyle;rounded=0;orthogonalLoop=1;jettySize=auto;html=1;exitX=0;exitY=0.5;exitDx=0;exitDy=0;exitPerimeter=0;entryX=0.75;entryY=1;entryDx=0;entryDy=0;" edge="1" parent="WIyWlLk6GJQsqaUBKTNV-1" source="sf_FIDJaUl7v7Dqxa3QS-294" target="sf_FIDJaUl7v7Dqxa3QS-4">
          <mxGeometry relative="1" as="geometry">
            <mxPoint x="720" y="280" as="targetPoint" />
            <Array as="points">
              <mxPoint x="760" y="560" />
              <mxPoint x="760" y="450" />
              <mxPoint x="720" y="450" />
              <mxPoint x="720" y="290" />
              <mxPoint x="730" y="290" />
            </Array>
          </mxGeometry>
        </mxCell>
        <mxCell id="sf_FIDJaUl7v7Dqxa3QS-325" value="GET" style="edgeLabel;html=1;align=center;verticalAlign=middle;resizable=0;points=[];" vertex="1" connectable="0" parent="sf_FIDJaUl7v7Dqxa3QS-302">
          <mxGeometry x="-0.0979" y="2" relative="1" as="geometry">
            <mxPoint as="offset" />
          </mxGeometry>
        </mxCell>
        <mxCell id="sf_FIDJaUl7v7Dqxa3QS-308" value="&lt;div&gt;Yes&lt;/div&gt;" style="text;html=1;align=center;verticalAlign=middle;resizable=0;points=[];autosize=1;strokeColor=none;fillColor=none;" vertex="1" parent="WIyWlLk6GJQsqaUBKTNV-1">
          <mxGeometry x="540" y="440" width="40" height="30" as="geometry" />
        </mxCell>
        <mxCell id="sf_FIDJaUl7v7Dqxa3QS-359" style="edgeStyle=orthogonalEdgeStyle;rounded=0;orthogonalLoop=1;jettySize=auto;html=1;exitX=0.5;exitY=1;exitDx=0;exitDy=0;entryX=1;entryY=0.5;entryDx=0;entryDy=0;" edge="1" parent="WIyWlLk6GJQsqaUBKTNV-1" source="sf_FIDJaUl7v7Dqxa3QS-318" target="sf_FIDJaUl7v7Dqxa3QS-356">
          <mxGeometry relative="1" as="geometry">
            <mxPoint x="-30" y="960" as="targetPoint" />
            <Array as="points">
              <mxPoint x="-5" y="940" />
            </Array>
          </mxGeometry>
        </mxCell>
        <mxCell id="sf_FIDJaUl7v7Dqxa3QS-362" value="GET" style="edgeLabel;html=1;align=center;verticalAlign=middle;resizable=0;points=[];" vertex="1" connectable="0" parent="sf_FIDJaUl7v7Dqxa3QS-359">
          <mxGeometry x="-0.8414" relative="1" as="geometry">
            <mxPoint as="offset" />
          </mxGeometry>
        </mxCell>
        <mxCell id="sf_FIDJaUl7v7Dqxa3QS-408" value="Start!" style="text;html=1;align=center;verticalAlign=middle;resizable=0;points=[];autosize=1;strokeColor=none;fillColor=none;" vertex="1" parent="WIyWlLk6GJQsqaUBKTNV-1">
          <mxGeometry x="-20" y="-70" width="50" height="30" as="geometry" />
        </mxCell>
      </root>
    </mxGraphModel>
  </diagram>
</mxfile>
